<svg xmlns="http://www.w3.org/2000/svg" width="1024" height="1024" viewBox="0 0 1024 1024">
  <defs>
    <linearGradient id="flame" x1="0" y1="0" x2="0" y2="1">
      <stop offset="0" stop-color="#A3E635"/>
      <stop offset="1" stop-color="#10B981"/>
    </linearGradient>
  </defs>
  <!-- kcals flame (src/lib/brand.ts FLAME_PATH), 26x26 viewport scaled to
       ~600px and centred in the 1024 canvas so it sits inside the adaptive
       icon safe zone. -->
  <path transform="translate(212 212) scale(23.077)" fill="url(#flame)"
        d="M13.5 2.7c.22 2.93 1.78 5.13 3.4 7.36 1.7 2.34 3.2 4.55 3.2 7.59 0 4.55-3.42 7.94-7.62 7.94S4.86 22.2 4.86 17.65c0-1.98.79-3.62 1.95-4.91.46.81 1.13 1.4 2.07 1.63-.55-1.87-.32-3.97.84-5.72 1.04-1.55 2.74-2.57 3.01-4.32.66.47 1.13 1.05 1.4 1.75.12-1.16.04-2.32-.63-3.38z"/>
</svg>
